Patient4_TMGait_0pt7_01_right_17_EMG.mot
version=1
nRows=23
nColumns=33
inDegrees=no
endheader
time	1LAddLong	2LGlutMax	3LGlutMed	4LIliopsoas	5LSemiMemb	6LBicFemLong	7LRecFem	8LVastMed	9LVastLat	10LGasMed	11LTibAnt	12lTibPost	13LPeroneusLong	14LSol	15LExtDigLong	16LFlexDigLong	17RAddLong	18RGlutMax	19RGlutMed	20RIliopsoas	21RSemiMemb	22RBicFemLong	23RRecFem	24RVastMed	25RVastLat	26RGasMed	27RTibAnt	28RTibPost	29RPeroneusLong	30RSol	31RExtDigLong	32RFlexDigLong
18.91	0.02243	-0.21332	-0.04303	0.000916	0.060272	-0.24521	0.11795	0.016479	0.159	0.060425	0.007172	-0.032349	0.013123	-0.34271	0.00351	-0.092163	-0.00885	-0.47867	0.44983	0.065918	0.066681	-0.019226	-0.023956	-0.09903	-0.006256	-0.000916	-0.082855	-0.00473	0.092316	-0.045471	-0.002289	-0.13519
18.911	0.010529	-0.26535	-0.079346	0.010834	0.017395	-0.089264	0.046234	0.010071	0.10559	0.018616	-0.007019	-0.071259	0.073395	-0.086212	0.032806	-0.032043	-0.011749	-0.47867	0.19898	0.081024	0.050659	-0.072174	-0.066376	-0.11292	-0.013428	0.004578	-0.32928	-0.009308	0.13138	-0.041046	-0.001373	-0.12253
18.912	0.002441	-0.27069	-0.081329	0.014496	0.024567	-0.031281	0.005341	-0.02533	0.05722	-0.006561	0.002747	-0.032196	0.056458	-0.06485	0.040894	0.26947	-0.019684	-0.41397	0.19119	0.080872	0.054932	-0.10635	-0.045624	-0.079041	-0.036011	0.009308	-0.22186	-0.006104	0.020905	-0.062103	-0.002289	-0.10681
18.913	-0.00885	-0.31479	-0.09903	0.012512	0.034027	0.009766	0.05722	-0.020142	0.014191	-0.054932	-0.009918	0.14008	0.050354	-0.12589	0.042419	0.015411	-0.0177	-0.45502	0.14572	0.03891	0.041809	-0.112	-0.028992	-0.1236	-0.028534	0.020447	-0.27679	-0.002136	-0.071716	-0.071411	-0.001831	-0.08606
18.914	-0.007324	-0.33386	-0.095673	0.007324	0.018921	0.02533	0.064087	-0.00946	0.097504	-0.21027	-0.009613	0.003967	0.012207	-0.096436	0.045776	-0.091858	-0.014801	-0.36987	0.77057	0.01358	0.054169	-0.13718	0.17105	-0.024872	-0.027161	0.014496	-0.018311	-0.006256	-0.15152	-0.041351	-0.001068	-0.065613
18.915	-0.002899	-0.31281	-0.057831	0.008392	0.011444	0.033264	0.074463	0.004272	0.057983	-0.21393	-0.004578	-0.1593	0.010681	-0.12436	0.049286	-0.27954	-0.018921	-0.39215	1.1678	-0.033112	0.050659	-0.13733	0.19608	-0.010071	-0.035248	0.01297	0.31952	-0.006409	-0.21484	-0.054016	0.000305	-0.057678
18.916	-0.000763	-0.2655	-0.016937	0.017853	0.019531	0.033875	0.10635	0.000305	-0.053406	-0.18387	0.001678	0.16403	-0.011749	0.025024	0.046539	0.3772	-0.014496	-0.34195	0.92758	-0.04715	0.04837	-0.10773	0.17487	-0.005341	-0.028687	0.00885	0.58289	0.006409	-0.25009	-0.032349	-0.001221	-0.03067
18.917	-0.002136	-0.28244	0.036316	0.015564	0.012817	0.056915	0.14252	-0.022583	-0.18051	-0.16007	0.008545	-0.067139	-0.057373	0.073395	0.040894	0.16357	-0.015564	-0.30426	0.37628	-0.051575	0.043182	-0.12878	0.10407	-0.05722	-0.036926	0.017395	0.36148	-0.001678	-0.1033	-0.061188	-0.001678	-0.018463
18.918	-0.002136	-0.26474	0.033417	0.00351	-0.036926	0.04425	0.168	-0.008545	-0.065613	0.159	0.006714	0.009613	-0.082855	0.098724	0.009613	0.072784	0.000153	-0.29709	0.15579	-0.11307	0.032806	-0.10696	0.14389	-0.050964	-0.039215	0.014496	-0.17227	-0.001831	-0.016327	-0.089569	-0.002136	-0.009766
18.919	-0.001373	-0.25681	0.039215	0.011139	-0.072327	-0.078735	0.21622	-0.008392	-0.00824	0.31357	0.008392	0.26504	-0.066528	0.1622	0.007324	-0.1506	-0.004578	-0.32852	0.027618	-0.13123	0.03479	-0.1088	0.21423	-0.024567	-0.034027	0.016174	-0.62988	-0.001221	0.0914	-0.12405	-0.00061	-0.003967
18.92	-0.002899	-0.26016	0.025177	0.021515	-0.072937	-0.11047	0.23025	-0.002899	0.048218	0.25116	-0.006561	-0.015564	0.00885	0.62164	0.00885	-0.41534	-0.000305	-0.30777	0.22614	-0.09613	0.026703	-0.097961	0.20874	-0.028839	-0.02594	0.018921	-0.50552	-0.010223	0.14343	-0.13626	-0.010986	0.005798
18.921	0.009918	-0.25314	-0.046844	0.014038	0.046234	-0.075836	0.21606	0.008545	0.14023	0.13214	-0.00946	-0.1355	0.073853	0.62851	0.015106	1.0544	0.000916	-0.21591	0.26154	0.10025	0.023193	-0.098724	0.21057	-0.016632	-0.018616	0.018005	-0.087128	-0.003204	-0.13016	-0.11963	-0.005798	0.003357
18.922	0.001068	-0.23682	-0.10803	0.011902	0.07309	-0.04364	0.13031	0.001373	0.20905	-0.040436	-0.002289	-0.065918	0.075226	0.48706	0.004272	-0.090942	-0.006866	-0.20493	0.37888	0.24597	0.033722	-0.10559	0.16846	-0.004425	-0.035706	0.018463	0.20767	-0.001221	-0.1152	-0.043793	-0.000153	0.002289
18.923	0.004272	-0.21255	-0.11765	0.010223	0.026398	-0.004578	0.052032	0.023651	0.17059	-0.041962	0.005341	-0.010529	0.043793	-0.36346	-0.002594	-0.23529	-0.002899	-0.2211	0.43472	0.24017	0.033569	-0.098267	0.1709	-0.068207	-0.013885	0.012054	-0.099182	-0.00351	0.09903	0.04715	-0.000153	-0.002136
18.924	0.018005	-0.19287	-0.10864	-0.010681	0.036163	-0.014343	-0.11597	0.009003	0.03952	0.06424	0.004272	-0.014801	-0.046692	-1.0994	-0.018616	-0.38025	-0.001678	-0.20447	0.84732	0.072174	0.028381	-0.095367	0.13168	-0.055847	-0.029297	0.010986	-0.31052	-0.002441	0.053558	0.097198	-0.00351	0.00061
18.925	0.021057	-0.19531	-0.069427	0.018921	0.026703	0.027771	-0.17303	-0.001373	-0.054321	0.038757	0.00412	-0.026855	-0.021362	-0.73929	-0.023499	0.3331	-0.002594	-0.18494	0.51224	0.014496	0.009155	-0.078735	0.09491	-0.046692	-0.013123	-0.001831	-0.28809	-0.010223	-0.17548	0.10925	-0.001526	0.002136
18.926	0.014038	-0.18448	-0.020905	0.010071	0.009155	0.048523	-0.14587	-0.014191	-0.075836	-0.035248	-0.001221	-0.023346	0.036011	-0.26672	-0.012512	0.028381	0.003967	-0.17853	0.34759	0.029449	0.016937	-0.04837	0.071716	-0.059509	-0.037384	0.000916	-0.15289	-0.001678	-0.23682	0.1004	-0.000305	0.006409
18.927	0.020752	-0.15976	0.034027	0.025787	0.014191	0.028839	-0.074005	-0.028534	-0.26596	0.010681	-0.000305	-0.00412	0.06485	-0.32257	-0.022125	0.032806	-0.005951	-0.099335	0.36438	0.030975	0.023956	-0.049133	0.045471	-0.041809	-0.0354	0.005341	0.17777	-0.005035	0.20157	0.04303	-0.000916	0.004272
18.928	0.013733	-0.15488	0.052338	0.015717	0.000763	0.031433	0.10651	-0.019379	-0.25848	0.25909	0.004578	0.006256	-0.026245	-0.63507	-0.019836	-0.021667	0.002289	-0.0914	0.3566	0.064545	0.01358	-0.022888	0.046082	-0.084381	-0.027466	0.00412	0.33752	-0.001984	0.25772	-0.012054	0.000305	0.003815
18.929	0.009918	-0.16129	0.023804	0.007629	-0.00885	0.007019	0.14847	-0.023041	-0.21423	0.24262	-0.004578	-0.005798	-0.075378	-0.61417	-0.023956	0.003815	-0.000916	-0.16876	0.49271	0.036163	0.015869	-0.041962	0.032196	-0.084076	-0.027618	0.005188	0.23422	-0.005951	0.22797	0.067902	-0.000458	0.019684
18.93	0.006104	-0.15991	0.010529	0.021667	-0.028229	0.008392	0.086212	-0.012665	-0.13016	0.14389	0.008545	-0.01358	-0.067444	-0.17395	0.003662	-0.033875	0.011749	-0.14984	0.54199	-0.022125	0.00351	-0.035706	0.057983	-0.078583	-0.013885	-0.005493	0.096741	-0.002747	0.1268	0.10666	-0.001373	0.007172
18.931	0.005646	-0.15778	0.006256	0.015869	-0.020599	0.001678	0.054321	-0.008545	-0.057983	0.018005	0.014801	-0.018921	-0.078735	0.10513	0.014343	-0.06958	-0.015411	-0.15671	0.4718	0.028839	0.012207	-0.029755	0.06134	-0.11002	-0.022278	-0.007629	-0.10315	-0.001373	0.065155	0.018616	-0.002441	0.01236
18.932	-0.007477	-0.16068	-0.046234	0.011902	0.004425	-0.014496	0.089111	-0.008698	-0.041656	-0.059204	0.005493	-0.2301	-0.10742	0.2272	0.023804	0.000305	-0.024872	-0.13962	0.47363	0.070343	0.006714	-0.028229	0.034485	-0.11383	-0.016327	-0.014496	-0.066681	-0.003662	-0.085754	-0.052643	-0.001221	0.012665
